# xmcd
#
# Track frame offsets:
#	150
#	14565
#	32215
#	48230
#	67992
#	81526
#	100433
#	114947
#	127669
#	139811
#	153545
#	169747
#	186829
#	209864
#	227006
#	244725
#	260687
#	277461
#	294713
#	312175
#
# Disc length: 4440 seconds
#
# Revision: 1
# Processed by: cddbd v1.5.2PL0 Copyright (c) Steve Scherf et al.
# Submitted via: audiograbber 1.83.01
#
DISCID=33115614
DTITLE=Kenny Rogers - All the hits and all new love songs
DYEAR=1900
DGENRE=
TTITLE0=Living with you
TTITLE1=Lady
TTITLE2=Gambler
TTITLE3=Coward of the country
TTITLE4=Ruby dont take your love to town
TTITLE5=sland in the stream (with Dolly Parton)
TTITLE6=Daytime friends
TTITLE7=Rueben james
TTITLE8=Blaze of Glory
TTITLE9=Every time two fools collide (with Dottie West)
TTITLE10=Green green gras of home
TTITLE11=Ain't no sunshine
TTITLE12=I will remember you
TTITLE13=Buy me a rose
TTITLE14=Three times a lady
TTITLE15=Share your love with me
TTITLE16=Loving arms
TTITLE17=Love don't live here any more
TTITLE18=You looked so beautiful
TTITLE19=Small dark cloud
EXTD=
EXTT0=
EXTT1=
EXTT2=
EXTT3=
EXTT4=
EXTT5=
EXTT6=
EXTT7=
EXTT8=
EXTT9=
EXTT10=
EXTT11=
EXTT12=
EXTT13=
EXTT14=
EXTT15=
EXTT16=
EXTT17=
EXTT18=
EXTT19=
PLAYORDER=
